<?xml version="1.0" encoding="UTF-8"?>
<svg id="_Шар_2" data-name="Шар 2" xmlns="http://www.w3.org/2000/svg" viewBox="0 0 358.2 408.36">
  <defs>
    <style>
      .cls-1 {
        fill: #fff;
        stroke-width: 0px;
      }
    </style>
  </defs>
  <g id="Layer_1" data-name="Layer 1">
    <g>
      <path class="cls-1" d="m324.23,105.02c.15-1.61.22-3.24.22-4.85,0-30.45-24.78-55.23-55.25-55.23-10.42,0-20.4,2.88-29.04,8.27C234.81,21.78,205.98-1.75,172.24.1c-32.1,1.6-57.51,25.09-61.69,55.22-5.79-2.07-11.79-3.11-17.85-3.11-30.45,0-55.25,24.77-55.25,55.23,0,.66.02,1.32.07,2.01C22.1,113.66-.04,122.57,0,154.13c.03,23.44,19.51,43.56,46.05,44.82l8.14-12.54c-.98.02-2.05.05-2.82.09l-1.98.06c-20.12,0-36.51-14.56-36.53-32.44-.02-21.3,11.61-28.22,33.09-33.55l4.85-1.83.14-4.88-.24-2.62c-.18-1.25-.36-2.49-.36-3.78,0-23.36,19.01-42.38,42.38-42.38,7.04,0,13.96,1.88,20.57,5.57l9.76,5.47-.2-11.18c-.47-27.73,21.52-50.56,50.08-51.97l2.76-.08c28.09,0,51.11,21.28,52.46,48.47.05.96,0,1.93-.14,4.43l-.58,16.51,11.59-11.79c8.05-8.18,18.79-12.69,30.19-12.69,23.38,0,42.39,19.02,42.39,42.38,0,2.91-.31,5.72-.87,8.47l-1.31,6.46,6.49,1.13c16.55,2.91,28.63,15.73,29.41,31.19.78,15.51-9.92,33.15-26.14,38.26l4.29,11.95c20.47-6.8,35.83-27.96,34.67-50.85-.96-19.51-14.59-35.93-33.91-41.77Z"/>
      <polygon class="cls-1" points="63.54 408.36 65.59 405.18 137.7 293.96 67.65 293.84 127.28 198.61 133.06 198.61 92.68 281.5 167.87 281.87 63.54 408.36"/>
      <polygon class="cls-1" points="174.79 364.37 176.63 361.52 241.28 261.81 178.48 261.7 231.94 176.33 237.11 176.33 200.9 250.64 268.34 250.97 174.79 364.37"/>
    </g>
  </g>
</svg>