<?xml version="1.0" encoding="UTF-8"?>
<svg id="_Шар_2" data-name="Шар 2" xmlns="http://www.w3.org/2000/svg" viewBox="0 0 358.22 282.7">
  <defs>
    <style>
      .cls-1 {
        fill: #fff;
        stroke-width: 0px;
      }
    </style>
  </defs>
  <g id="Layer_1" data-name="Layer 1">
    <g>
      <path class="cls-1" d="m324.23,105.03c.14-1.63.22-3.24.22-4.85,0-30.45-24.79-55.23-55.25-55.23-10.42,0-20.38,2.88-29.04,8.28C234.8,21.78,205.99-1.76,172.26.1c-32.1,1.59-57.53,25.09-61.7,55.22-5.81-2.06-11.78-3.11-17.87-3.11-30.46,0-55.23,24.78-55.23,55.24,0,.66.01,1.31.07,2C22.1,113.65-.02,122.58,0,154.12c.02,23.44,19.51,43.56,46.05,44.82l8.13-12.54c-.96.02-2.07.04-2.82.09l-1.98.05c-20.13,0-36.52-14.55-36.53-32.44-.02-21.31,11.59-28.22,33.09-33.54l4.83-1.84.14-4.88-.24-2.62c-.17-1.24-.36-2.5-.36-3.78,0-23.38,19.03-42.38,42.38-42.38,7.05,0,13.98,1.87,20.58,5.57l9.75,5.47-.2-11.19c-.48-27.73,21.53-50.56,50.07-51.98l2.78-.08c28.06,0,51.11,21.28,52.45,48.47.06.98,0,1.93-.14,4.43l-.58,16.52,11.61-11.79c8.03-8.18,18.76-12.69,30.17-12.69,23.38,0,42.4,19.02,42.4,42.38,0,2.9-.31,5.72-.87,8.47l-1.3,6.46,6.47,1.13c16.56,2.9,28.65,15.73,29.41,31.18.78,15.52-9.93,33.15-26.14,38.26l4.28,11.97c20.49-6.81,35.83-27.97,34.7-50.85-.96-19.51-14.59-35.94-33.93-41.76Z"/>
      <path class="cls-1" d="m114.91,248.94h.02c-21.34-28.56-19.91-77.77-20.92-62.01-2.67,41.13-18.89,62.01-18.89,62.01h0c-1.35,2.58-2.11,5.41-2.11,8.43,0,10.89,9.84,19.73,22.01,19.73s22.02-8.83,22.02-19.73c0-3.02-.77-5.85-2.13-8.43Z"/>
      <path class="cls-1" d="m182.63,210.19h.02c-18.63-24.95-17.4-67.91-18.28-54.16-2.34,35.93-16.47,54.16-16.47,54.16h0c-1.18,2.23-1.87,4.71-1.87,7.35,0,9.51,8.62,17.22,19.22,17.22s19.24-7.71,19.24-17.22c0-2.64-.7-5.11-1.86-7.35Z"/>
      <path class="cls-1" d="m235.09,260.21h0c-17.04-22.83-15.89-62.15-16.73-49.56-2.11,32.86-15.07,49.56-15.07,49.56h0c-1.08,2.05-1.69,4.33-1.69,6.73,0,8.7,7.86,15.76,17.6,15.76s17.59-7.06,17.59-15.76c0-2.4-.62-4.68-1.7-6.73Z"/>
      <path class="cls-1" d="m256.24,193.17h0c-10.71-14.37-10-39.11-10.51-31.19-1.36,20.69-9.49,31.19-9.49,31.19h0c-.71,1.29-1.09,2.72-1.09,4.23,0,5.49,4.96,9.93,11.08,9.93s11.08-4.44,11.08-9.93c0-1.51-.38-2.94-1.08-4.23Z"/>
    </g>
  </g>
</svg>