<?xml version="1.0" encoding="UTF-8"?>
<svg id="_Шар_2" data-name="Шар 2" xmlns="http://www.w3.org/2000/svg" viewBox="0 0 420.3 423.58">
  <defs>
    <style>
      .cls-1 {
        fill: #fff;
        stroke-width: 0px;
      }
    </style>
  </defs>
  <g id="Layer_1" data-name="Layer 1">
    <g>
      <path class="cls-1" d="m271.54,64.59c1.28,1.48,3.51,1.63,5,.34,1.46-1.29,1.6-3.53.32-5.01l-26.39-30.16c-1.29-1.49-3.52-1.61-5-.32-1.46,1.27-1.63,3.51-.33,5l26.41,30.15Z"/>
      <path class="cls-1" d="m316.8,47.17c1.94,0,3.53-1.61,3.51-3.57l-.29-40.07c-.02-1.99-1.61-3.54-3.57-3.53-1.96.02-3.53,1.61-3.53,3.57l.29,40.08c.02,1.98,1.61,3.53,3.59,3.52Z"/>
      <path class="cls-1" d="m408.02,152.53l-35.46-18.65c-1.75-.92-3.9-.24-4.82,1.49-.91,1.73-.24,3.87,1.5,4.79l35.45,18.67c1.76.9,3.89.24,4.82-1.51.9-1.71.24-3.86-1.49-4.78Z"/>
      <path class="cls-1" d="m416.34,85.2l-39.78,4.65c-1.96.24-3.36,2.01-3.13,3.95.23,1.94,1.99,3.32,3.94,3.1l39.81-4.65c1.95-.24,3.36-1.99,3.1-3.95-.21-1.94-1.98-3.33-3.94-3.1Z"/>
      <path class="cls-1" d="m333.39,156.83c-1.84.63-2.81,2.67-2.14,4.51l13.31,37.81c.65,1.85,2.67,2.81,4.53,2.16,1.84-.65,2.83-2.67,2.16-4.53l-13.33-37.8c-.65-1.85-2.67-2.82-4.53-2.15Z"/>
      <path class="cls-1" d="m357.81,60.9l24.68-31.58c1.18-1.53.93-3.78-.62-4.98-1.55-1.21-3.77-.94-4.98.62l-24.66,31.6c-1.22,1.54-.94,3.77.59,4.98,1.57,1.2,3.77.91,5-.63Z"/>
      <path class="cls-1" d="m324.21,189.6c.15-1.62.23-3.24.23-4.85,0-10.77-3.15-20.8-8.51-29.31.23,0,.46.03.68.03,28.15,0,51.07-22.9,51.07-51.06s-22.91-51.07-51.07-51.07-51.05,22.91-51.05,51.07c0,9.19,2.48,17.8,6.74,25.26-1.03-.06-2.06-.16-3.11-.16-10.42,0-20.39,2.88-29.04,8.27-2.7-15.81-11.33-29.61-23.54-39.2l38.78,3.16c1.98.15,3.68-1.3,3.83-3.26.15-1.94-1.28-3.66-3.25-3.81l-39.95-3.28c-1.94-.14-3.66,1.31-3.81,3.28-.03.27.05.52.09.78-11.35-7.51-25.22-11.61-40.05-10.79-32.1,1.6-57.54,25.09-61.7,55.22-5.8-2.06-11.79-3.1-17.87-3.1-30.45,0-55.25,24.77-55.25,55.23,0,.66.03,1.32.09,2.01C22.09,198.24-.04,207.15,0,238.7c.02,23.44,19.51,43.57,46.05,44.81l8.11-12.53c-.96,0-2.07.05-2.81.08l-1.98.05c-20.13,0-36.51-14.56-36.54-32.42-.03-21.32,11.61-28.22,33.08-33.56l4.85-1.84.14-4.88-.24-2.61c-.17-1.25-.36-2.5-.36-3.78,0-23.37,19.02-42.37,42.39-42.37,7.05,0,13.98,1.88,20.57,5.58l9.77,5.46-.2-11.18c-.49-27.72,21.52-50.57,50.05-51.99l2.78-.06c28.08,0,51.11,21.26,52.47,48.47.06.96,0,1.94-.14,4.41l-.58,16.54,11.59-11.79c8.05-8.2,18.76-12.7,30.19-12.7,7.19,0,13.96,1.81,19.9,4.98,1.14.73,2.29,1.45,3.49,2.09,11.43,7.6,18.99,20.58,18.99,35.3,0,2.91-.3,5.72-.85,8.47l-1.32,6.46,6.5,1.15c16.55,2.89,28.63,15.72,29.4,31.18.76,15.51-9.92,33.14-26.15,38.26l4.29,11.96c20.47-6.79,35.83-27.96,34.69-50.85-.96-19.51-14.59-35.95-33.93-41.78Zm-49.75-85.18c0-23.25,18.9-42.17,42.15-42.17s42.16,18.92,42.16,42.17-18.92,42.15-42.16,42.15c-2.86,0-5.65-.29-8.36-.84-6.5-6.51-14.62-11.36-23.69-13.99-6.29-7.37-10.1-16.9-10.1-27.32Z"/>
      <polygon class="cls-1" points="67.45 289.45 64.83 292.1 67.48 294.68 70.09 292.1 67.45 289.45"/>
      <rect class="cls-1" x="72.48" y="274.64" width="3.71" height="3.69"/>
      <path class="cls-1" d="m94.98,304.2l.76-4.86,5,5.01.11,6.17,1.81-5.46,5.79-2.15h-6.17l-5.03-4.82,4.85-1.41-2.84-3.72h7.1l4.36,4.66-2.39-5.68,2.39-5.4-4.36,4.54h-7.1l2.55-3.97-4.56-.87,5.03-5.09h6.17l-5.65-2.05-2.14-5.66v6.27l-4.91,5.13-.76-4.86-4.09,2.77v-6.91l4.47-4.66-5.33,2.66-5.58-2.45,4.47,4.45v6.91l-4.16-2.5-.68,4.59-5.03-5.13v-6.27l-1.94,5.66-5.84,2.23h6.28l5.01,4.91-5.15,1.12,3.16,3.71h-7.1l-4.47-4.54,2.16,5.57-2.16,5.52,4.47-4.66h7.1l-3.16,4.13,5.15.82-5.01,5h-6.28l5.84,2.02,1.87,5.59.08-6.17,4.85-4.83.87,4.98,4.16-3.1v7.13l-4.47,4.35,5.44-2.39,5.36,2.39-4.36-4.35v-7.13l4.09,2.8Zm.11-8.17l-2.87-3.08h4.38l-1.5,3.08Zm.17-7.79l1.05,2.83h-4.09l3.04-2.83Zm-4.25-2.66l2.92,1.23-2.92,2.84v-4.07Zm0,8.81l2.92,2.83-2.92,1.43v-4.25Zm-6.55-6.15l3.04,2.83h-4.07l1.03-2.83Zm.2,7.79l-1.23-3.08h4.07l-2.84,3.08Zm4.27,2.52l-2.77-1.14,2.77-3.02v4.16Zm0-8.9l-2.77-2.84,2.77-1.23v4.07Z"/>
      <polygon class="cls-1" points="114.5 291.97 111.88 289.36 109.23 291.97 111.88 294.59 114.5 291.97"/>
      <rect class="cls-1" x="72.67" y="305.57" width="3.71" height="3.68"/>
      <polygon class="cls-1" points="87.17 314.17 89.81 316.78 92.46 314.17 89.81 311.55 87.17 314.17"/>
      <polygon class="cls-1" points="89.71 266.93 87.08 269.56 89.71 272.18 92.33 269.56 89.71 266.93"/>
      <rect class="cls-1" x="103.26" y="305.57" width="3.74" height="3.68"/>
      <rect class="cls-1" x="103.55" y="274.64" width="3.71" height="3.69"/>
      <rect class="cls-1" x="221.73" y="244.59" width="4.77" height="4.82"/>
      <path class="cls-1" d="m237.23,294.2l7.07-3.11,6.94,3.11-5.65-5.66v-9.22l5.32,3.62.97-6.29,6.49,6.47.14,8.01,2.34-7.07,7.51-2.8h-8.01l-6.5-6.24,6.26-1.85-3.68-4.82h9.21l5.65,6.06-3.08-7.4,3.08-6.96-5.65,5.88h-9.21l3.31-5.18-5.9-1.09,6.5-6.61h8.01l-7.34-2.67-2.78-7.33v8.12l-6.35,6.64-.97-6.31-5.32,3.62v-8.97l5.8-6.05-6.91,3.45-7.25-3.18,5.8,5.77v8.97l-5.39-3.26-.9,5.94-6.52-6.64v-8.12l-2.54,7.33-7.55,2.92h8.13l6.5,6.37-6.67,1.46,4.1,4.82h-9.21l-5.79-5.88,2.78,7.19-2.78,7.16,5.79-6.06h9.21l-4.1,5.36,6.67,1.05-6.5,6.5h-8.13l7.55,2.61,2.45,7.26.09-8.01,6.28-6.27,1.14,6.49,5.39-4.01v9.22l-5.8,5.66Zm13.78-21.87l-3.71-3.98h5.65l-1.94,3.98Zm.23-10.08l1.37,3.69h-5.3l3.94-3.69Zm-5.52-3.46l3.78,1.58-3.78,3.69v-5.27Zm0,11.43l3.78,3.69-3.78,1.84v-5.53Zm-2.69-11.43v5.27l-3.57-3.69,3.57-1.58Zm-5.8,3.46l3.95,3.69h-5.3l1.35-3.69Zm.26,10.08l-1.61-3.98h5.3l-3.69,3.98Zm1.97,1.82l3.57-3.94v5.41l-3.57-1.47Z"/>
      <polygon class="cls-1" points="244.03 234.62 240.65 238.02 244.03 241.42 247.47 238.02 244.03 234.62"/>
      <polygon class="cls-1" points="218.6 267.25 215.18 263.81 211.81 267.25 215.23 270.6 218.6 267.25"/>
      <rect class="cls-1" x="221.94" y="284.71" width="4.83" height="4.77"/>
      <rect class="cls-1" x="261.99" y="244.59" width="4.82" height="4.82"/>
      <polygon class="cls-1" points="247.6 295.88 244.19 292.46 240.77 295.88 244.19 299.25 247.6 295.88"/>
      <rect class="cls-1" x="261.64" y="284.71" width="4.82" height="4.77"/>
      <polygon class="cls-1" points="272.78 263.7 269.38 267.08 272.78 270.48 276.2 267.08 272.78 263.7"/>
      <polygon class="cls-1" points="99.51 388.14 96.13 391.57 99.55 394.92 102.94 391.57 99.51 388.14"/>
      <polygon class="cls-1" points="153.7 391.41 157.11 394.79 160.53 391.41 157.11 388.03 153.7 391.41"/>
      <rect class="cls-1" x="106.28" y="409.05" width="4.83" height="4.76"/>
      <polygon class="cls-1" points="125.09 420.21 128.51 423.58 131.93 420.21 128.51 416.8 125.09 420.21"/>
      <rect class="cls-1" x="146.32" y="368.92" width="4.82" height="4.82"/>
      <polygon class="cls-1" points="128.38 358.95 124.97 362.34 128.38 365.74 131.78 362.34 128.38 358.95"/>
      <path class="cls-1" d="m155.6,398.73l-3.08-7.38,3.08-6.97-5.67,5.88h-9.19l3.33-5.17-5.91-1.11,6.5-6.61h8.01l-7.34-2.66-2.78-7.34v8.13l-6.35,6.64-.99-6.32-5.3,3.62v-8.96l5.8-6.05-6.93,3.45-7.22-3.18,5.79,5.77v8.96l-5.39-3.24-.9,5.94-6.5-6.64v-8.13l-2.54,7.34-7.55,2.92h8.11l6.5,6.35-6.67,1.47,4.1,4.81h-9.21l-5.79-5.88,2.78,7.19-2.78,7.16,5.79-6.05h9.21l-4.1,5.37,6.67,1.05-6.5,6.5h-8.11l7.55,2.61,2.43,7.25.11-8.01,6.26-6.26,1.14,6.49,5.39-4.01v9.22l-5.79,5.65,7.05-3.1,6.94,3.1-5.65-5.65v-9.22l5.3,3.62.99-6.3,6.49,6.47.14,8.01,2.35-7.07,7.49-2.79h-8.01l-6.5-6.25,6.26-1.84-3.68-4.82h9.19l5.67,6.05Zm-34.03-12.15l3.92,3.68h-5.29l1.37-3.68Zm.24,10.08l-1.61-3.99h5.29l-3.68,3.99Zm5.55,3.3l-3.57-1.47,3.57-3.94v5.41Zm0-11.58l-3.57-3.68,3.57-1.58v5.26Zm8.21-1.8l1.37,3.68h-5.3l3.94-3.68Zm-5.52-3.46l3.78,1.58-3.78,3.68v-5.26Zm0,16.96v-5.53l3.78,3.68-3.78,1.85Zm5.29-3.42l-3.71-3.99h5.67l-1.96,3.99Z"/>
      <rect class="cls-1" x="145.96" y="409.05" width="4.83" height="4.76"/>
      <rect class="cls-1" x="106.04" y="368.92" width="4.79" height="4.82"/>
      <polygon class="cls-1" points="197.68 314.06 195.31 316.42 197.68 318.79 200.05 316.42 197.68 314.06"/>
      <rect class="cls-1" x="210.14" y="321" width="3.36" height="3.34"/>
      <rect class="cls-1" x="209.89" y="348.86" width="3.36" height="3.33"/>
      <polygon class="cls-1" points="177.62 334.33 175.27 336.72 177.65 339.03 179.99 336.72 177.62 334.33"/>
      <rect class="cls-1" x="182.31" y="348.86" width="3.37" height="3.33"/>
      <polygon class="cls-1" points="215.27 336.61 217.64 338.98 220.03 336.61 217.64 334.28 215.27 336.61"/>
      <polygon class="cls-1" points="195.41 356.6 197.77 358.95 200.14 356.6 197.77 354.24 195.41 356.6"/>
      <rect class="cls-1" x="182.16" y="321" width="3.33" height="3.34"/>
      <path class="cls-1" d="m216.59,341.71l-2.14-5.15,2.14-4.83-3.94,4.09h-6.4l2.31-3.59-4.1-.78,4.54-4.58h5.55l-5.11-1.87-1.93-5.07v5.65l-4.41,4.61-.68-4.39-3.69,2.5v-6.21l4.03-4.2-4.79,2.39-5.04-2.2,4.03,4.01v6.21l-3.75-2.26-.61,4.15-4.53-4.61v-5.65l-1.76,5.07-5.24,2.03h5.64l4.53,4.42-4.65,1.02,2.86,3.35h-6.4l-4.03-4.09,1.94,5-1.94,4.98,4.03-4.21h6.4l-2.86,3.71,4.65.74-4.53,4.5h-5.64l5.24,1.82,1.69,5.05.08-5.55,4.36-4.36.78,4.5,3.75-2.8v6.42l-4.03,3.91,4.91-2.14,4.83,2.14-3.94-3.91v-6.42l3.69,2.52.68-4.37,4.48,4.5.11,5.55,1.63-4.91,5.23-1.95h-5.55l-4.54-4.33,4.38-1.28-2.58-3.34h6.4l3.94,4.21Zm-23.66-8.45l2.75,2.55h-3.69l.94-2.55Zm.2,7l-1.14-2.77h3.69l-2.55,2.77Zm3.83,2.28l-2.49-1.02,2.49-2.73v3.75Zm0-8.05l-2.49-2.54,2.49-1.09v3.64Zm5.71-1.24l.94,2.55h-3.68l2.74-2.55Zm-3.83-2.4l2.61,1.09-2.61,2.54v-3.64Zm0,11.79v-3.86l2.61,2.57-2.61,1.29Zm3.68-2.39l-2.58-2.77h3.94l-1.35,2.77Z"/>
      <rect class="cls-1" x="149.31" y="284.74" width="2.37" height="2.34"/>
      <rect class="cls-1" x="168.72" y="284.74" width="2.36" height="2.34"/>
      <polygon class="cls-1" points="174.17 274.49 172.5 276.13 174.17 277.78 175.84 276.13 174.17 274.49"/>
      <polygon class="cls-1" points="160.12 260.27 158.46 261.91 160.12 263.58 161.79 261.91 160.12 260.27"/>
      <rect class="cls-1" x="149.21" y="265.14" width="2.32" height="2.35"/>
      <polygon class="cls-1" points="158.52 290.2 160.19 291.86 161.85 290.2 160.19 288.54 158.52 290.2"/>
      <rect class="cls-1" x="168.9" y="265.14" width="2.35" height="2.35"/>
      <path class="cls-1" d="m173.43,279.71l-1.5-3.62,1.5-3.4-2.77,2.88h-4.5l1.63-2.53-2.9-.55,3.19-3.24h3.92l-3.6-1.31-1.34-3.56v3.96l-3.11,3.25-.47-3.09-2.6,1.77v-4.38l2.83-2.97-3.37,1.7-3.54-1.57,2.83,2.83v4.38l-2.63-1.58-.44,2.9-3.19-3.25v-3.96l-1.23,3.56-3.69,1.44h3.97l3.19,3.11-3.28.71,2.02,2.36h-4.51l-2.83-2.88,1.37,3.51-1.37,3.51,2.83-2.96h4.51l-2.02,2.61,3.28.52-3.19,3.18h-3.97l3.69,1.26,1.2,3.55.03-3.91,3.07-3.05.56,3.16,2.63-1.96v4.53l-2.83,2.74,3.45-1.51,3.39,1.51-2.75-2.74v-4.53l2.6,1.78.47-3.1,3.16,3.18.08,3.91,1.14-3.46,3.68-1.35h-3.92l-3.19-3.05,3.08-.91-1.81-2.36h4.5l2.77,2.96Zm-16.64-5.96l1.91,1.82h-2.58l.67-1.82Zm.12,4.94l-.79-1.94h2.58l-1.79,1.94Zm2.71,1.61l-1.75-.71,1.75-1.91v2.63Zm0-5.65l-1.75-1.8,1.75-.77v2.58Zm4.01-.9l.68,1.82h-2.61l1.93-1.82Zm-2.69-1.68l1.84.77-1.84,1.8v-2.58Zm0,8.29v-2.69l1.84,1.79-1.84.9Zm2.58-1.67l-1.82-1.94h2.78l-.96,1.94Z"/>
      <polygon class="cls-1" points="146 274.53 144.34 276.2 146.02 277.84 147.67 276.2 146 274.53"/>
      <polygon class="cls-1" points="260.19 360.23 262.08 362.11 264 360.23 262.08 358.33 260.19 360.23"/>
      <rect class="cls-1" x="249.67" y="354.01" width="2.69" height="2.66"/>
      <path class="cls-1" d="m277.2,348.25l-1.72-4.13,1.72-3.89-3.16,3.28h-5.14l1.85-2.87-3.3-.62,3.63-3.71h4.47l-4.09-1.48-1.55-4.08v4.51l-3.56,3.74-.55-3.55-2.96,2.03v-5l3.24-3.39-3.86,1.94-4.03-1.78,3.22,3.23v5l-3.01-1.81-.49,3.33-3.65-3.74v-4.51l-1.41,4.08-4.21,1.62h4.53l3.63,3.57-3.74.82,2.29,2.67h-5.14l-3.22-3.28,1.53,4.02-1.53,4,3.22-3.37h5.14l-2.29,2.97,3.74.6-3.63,3.6h-4.53l4.21,1.48,1.35,4.04.06-4.46,3.51-3.49.62,3.61,3.01-2.25v5.16l-3.22,3.15,3.94-1.73,3.86,1.73-3.15-3.15v-5.16l2.96,2.03.55-3.54,3.62,3.65.09,4.46,1.31-3.96,4.18-1.56h-4.47l-3.63-3.48,3.49-1.02-2.05-2.67h5.14l3.16,3.37Zm-18.99-6.81l2.19,2.07h-2.96l.78-2.07Zm.14,5.65l-.91-2.22h2.96l-2.05,2.22Zm3.08,1.84l-1.99-.82,1.99-2.2v3.02Zm0-6.46l-1.99-2.07,1.99-.88v2.95Zm4.57-1.03l.77,2.07h-2.96l2.19-2.07Zm-3.07-1.91l2.11.88-2.11,2.07v-2.95Zm0,9.47v-3.08l2.11,2.05-2.11,1.03Zm2.96-1.9l-2.08-2.22h3.16l-1.08,2.22Z"/>
      <rect class="cls-1" x="271.82" y="354.01" width="2.7" height="2.66"/>
      <polygon class="cls-1" points="276.14 344.17 278.04 346.06 279.95 344.17 278.04 342.27 276.14 344.17"/>
      <polygon class="cls-1" points="261.99 329.83 263.91 327.92 261.99 326.04 260.09 327.92 261.99 329.83"/>
      <polygon class="cls-1" points="245.9 342.33 244 344.25 245.92 346.12 247.8 344.25 245.9 342.33"/>
      <rect class="cls-1" x="272.02" y="331.61" width="2.69" height="2.68"/>
      <rect class="cls-1" x="249.55" y="331.61" width="2.66" height="2.68"/>
    </g>
  </g>
</svg>