<?xml version="1.0" encoding="UTF-8"?>
<svg id="_Шар_2" data-name="Шар 2" xmlns="http://www.w3.org/2000/svg" viewBox="0 0 430.94 344.52">
  <defs>
    <style>
      .cls-1 {
        fill: #fff;
        stroke-width: 0px;
      }
    </style>
  </defs>
  <g id="Layer_1" data-name="Layer 1">
    <g>
      <path class="cls-1" d="m157.94,118.52c2.36,2.7,6.46,3,9.19.61,2.7-2.36,2.96-6.47.59-9.18l-48.41-55.33c-2.39-2.73-6.5-2.96-9.22-.61-2.67,2.34-2.96,6.45-.59,9.17l48.44,55.34Z"/>
      <path class="cls-1" d="m240.98,86.56c3.59-.02,6.5-2.96,6.46-6.54l-.52-73.54C246.89,2.85,243.97,0,240.36,0c-3.57.03-6.47,2.95-6.44,6.56l.52,73.52c.03,3.62,2.96,6.5,6.55,6.47Z"/>
      <path class="cls-1" d="m408.37,279.87l-65.08-34.22c-3.19-1.69-7.13-.45-8.8,2.73-1.69,3.18-.47,7.1,2.73,8.78l65.06,34.23c3.22,1.66,7.14.46,8.8-2.75,1.7-3.13.5-7.07-2.72-8.77Z"/>
      <path class="cls-1" d="m423.66,156.34l-73.02,8.53c-3.59.41-6.14,3.67-5.71,7.23.41,3.57,3.65,6.1,7.22,5.7l73.02-8.52c3.6-.44,6.17-3.65,5.73-7.25-.39-3.56-3.63-6.11-7.23-5.68Z"/>
      <path class="cls-1" d="m316.24,111.76l45.26-57.95c2.22-2.84,1.73-6.94-1.11-9.14-2.83-2.23-6.91-1.71-9.13,1.13l-45.28,57.98c-2.22,2.83-1.72,6.91,1.11,9.13,2.86,2.2,6.93,1.69,9.15-1.15Z"/>
      <path class="cls-1" d="m330.82,191.58c0-50.83-41.36-92.19-92.2-92.19-41.37,0-76.46,27.4-88.09,65.01.6-.05,1.19-.14,1.79-.17l3.08-.08c.17,0,.32.04.49.04l-1.52.04c-.6.03-1.19.12-1.79.17-10.05.79-19.3,4.02-27.25,8.98l-69.18-5.66c-3.62-.25-6.75,2.41-7.03,5.99-.32,3.56,2.37,6.72,5.96,7.02l56.51,4.6c-6.62,7.82-11.24,17.3-12.9,27.79-4.94-1.63-10-2.45-15.15-2.45-27.65,0-50.16,22.5-50.16,50.16,0,.37.02.72.03,1.09C19.43,265.79-.02,274.1,0,302.42c.02,22.76,20.19,41.28,44.97,41.28l2.37-.06c15.16-.77,78.13.05,78.16.05l.02-1.08c.11.01.23.03.33.05l.05,1.03-.02-1.02c8.74,1.17,28.4,1.2,72.86,1.29,0,0,33.91.57,58.53.57,9.28,0,17.26-.08,21.67-.3,11.11-.55,21.61-5.69,29.57-14.5,8.55-9.45,13.1-21.79,12.49-33.87-.69-14.23-8.86-26.58-21.09-33.71-.43-.25-.88-.45-1.31-.69,19.68-16.92,32.23-41.93,32.23-69.86Zm-23.17,104.92c.43,8.45-2.95,17.52-9.04,24.26-5.58,6.15-12.79,9.74-20.35,10.12-15.95.8-79.25-.3-79.4-.29-28.09-.05-70.71-.16-72.98-.24l-.15,2.96-.06-2.98s-29.22-.38-52.77-.38c-11.27,0-21.26.09-26.22.34l-1.7.04c-17.41,0-31.6-12.54-31.62-27.94-.02-18.46,9.66-24.23,28.75-28.94l4.83-1.94.32-4.87-.2-2.52c-.14-1.09-.32-2.17-.32-3.29,0-20.29,16.52-36.8,36.8-36.8,6.12,0,12.12,1.63,17.87,4.84l10.13,5.68-.2-11.62c-.26-14.95,7.08-28.13,18.52-36.4,1.98-.3,3.68-1.4,4.65-3.1,4.57-2.52,9.63-4.34,15.06-5.23,1.79-.29,3.61-.52,5.47-.62l2.42-.06c1.92,0,3.8.15,5.65.37,21.88,2.61,39.08,20.04,40.17,41.87.03.81-.02,1.61-.14,3.9l-.59,17.18,12.03-12.27c6.99-7.11,16.29-11.02,26.23-11.02,20.28,0,36.8,16.51,36.8,36.8,0,2.47-.27,4.87-.71,7.19-.02.06,0,.12-.02.18l-1.34,6.69,6.72,1.19c1.78.32,3.49.76,5.15,1.33,11.6,3.98,19.68,13.92,20.24,25.59Zm-16.94-45.92c-1.94-25.89-23.52-46.39-49.9-46.39-9.01,0-17.62,2.35-25.19,6.77-4.69-23.92-24.4-42.37-49.03-46.08-.65-.1-1.33-.08-1.98-.16,11.02-30.26,39.98-51.98,74.02-51.98,43.47,0,78.84,35.37,78.84,78.84,0,23.49-10.41,44.55-26.76,59Z"/>
    </g>
  </g>
</svg>