<?xml version="1.0" encoding="UTF-8"?>
<svg id="_Шар_2" data-name="Шар 2" xmlns="http://www.w3.org/2000/svg" viewBox="0 0 311.94 302.06">
  <defs>
    <style>
      .cls-1 {
        fill: #fff;
        stroke-width: 0px;
      }
    </style>
  </defs>
  <g id="Layer_1" data-name="Layer 1">
    <g>
      <path class="cls-1" d="m156.51,233.06c-42.21,0-76.54-34.33-76.54-76.54s34.33-76.54,76.54-76.54,76.55,34.33,76.55,76.54-34.33,76.54-76.55,76.54Zm0-139.73c-34.84,0-63.19,28.34-63.19,63.19s28.34,63.19,63.19,63.19,63.19-28.34,63.19-63.19-28.34-63.19-63.19-63.19Z"/>
      <path class="cls-1" d="m96.92,89.82c1.93,2.22,1.72,5.57-.49,7.51h0c-2.23,1.94-5.59,1.71-7.51-.49l-39.58-45.21c-1.93-2.23-1.7-5.58.49-7.49h0c2.21-1.93,5.58-1.73,7.51.49l39.57,45.2Z"/>
      <path class="cls-1" d="m162.04,65.37c.03,2.93-2.34,5.33-5.27,5.35h0c-2.94.02-5.33-2.33-5.36-5.29l-.43-60.07C150.96,2.4,153.33.02,156.25,0h0c2.95-.01,5.33,2.33,5.36,5.29l.42,60.08Z"/>
      <path class="cls-1" d="m65.63,141.91c2.94.24,5.09,2.81,4.87,5.73h0c-.24,2.93-2.79,5.11-5.74,4.88l-59.88-4.88c-2.93-.25-5.13-2.82-4.86-5.73H.02c.23-2.93,2.78-5.1,5.74-4.9l59.87,4.9Z"/>
      <path class="cls-1" d="m75.28,198.83c2.49-1.58,5.77-.83,7.34,1.65h0c1.56,2.47.84,5.77-1.66,7.34l-50.79,32.1c-2.5,1.58-5.78.84-7.33-1.64h0c-1.58-2.49-.84-5.77,1.66-7.34l50.78-32.11Z"/>
      <path class="cls-1" d="m120.65,238.42c1.05-2.76,4.11-4.14,6.85-3.11h0c2.74,1.04,4.13,4.09,3.12,6.86l-21.17,56.22c-1.06,2.75-4.11,4.14-6.83,3.1h0c-2.79-1.04-4.16-4.09-3.13-6.85l21.16-56.22Z"/>
      <path class="cls-1" d="m235.39,210.08c-2.61-1.37-3.61-4.57-2.23-7.17h0c1.35-2.6,4.57-3.61,7.18-2.23l53.17,27.95c2.61,1.39,3.61,4.6,2.23,7.17h0c-1.36,2.62-4.57,3.6-7.19,2.25l-53.15-27.97Z"/>
      <path class="cls-1" d="m247.57,145.25c-2.92.34-5.56-1.75-5.9-4.65h0c-.35-2.92,1.73-5.58,4.66-5.91l59.67-6.98c2.93-.33,5.58,1.75,5.89,4.65h0c.36,2.94-1.73,5.57-4.66,5.93l-59.67,6.96Z"/>
      <path class="cls-1" d="m208.41,294.96c.99,2.77-.46,5.81-3.24,6.8h0c-2.78.95-5.8-.48-6.78-3.25l-19.98-56.68c-.97-2.76.49-5.81,3.24-6.77h0c2.77-.98,5.81.46,6.78,3.24l19.96,56.66Z"/>
      <path class="cls-1" d="m218.24,91.29c-1.82,2.32-5.14,2.74-7.47.94h0c-2.32-1.81-2.72-5.14-.92-7.46l37-47.37c1.81-2.31,5.15-2.74,7.46-.92h0c2.31,1.8,2.72,5.15.9,7.48l-36.98,47.33Z"/>
    </g>
  </g>
</svg>